<svg xmlns="http://www.w3.org/2000/svg" xmlns:xlink="http://www.w3.org/1999/xlink" width="512" zoomAndPan="magnify" viewBox="0 0 384 383.999986" height="512" preserveAspectRatio="xMidYMid meet" version="1.0"><defs><g/></defs><g fill="#ff3131" fill-opacity="1"><g transform="translate(345.590224, 80.249994)"><g><path d="M -81.296875 -3 C -72.703125 -3 -65.800781 -0.203125 -60.59375 5.390625 C -55.394531 10.992188 -51.695312 19.695312 -49.5 31.5 L -16.796875 199.796875 C -16.398438 201.796875 -16.203125 203.195312 -16.203125 204 C -16.203125 210 -19.601562 213 -26.40625 213 C -30.601562 213 -33.597656 212.097656 -35.390625 210.296875 C -37.191406 208.492188 -38.394531 205.796875 -39 202.203125 L -70.796875 30.90625 C -71.796875 25.300781 -73.09375 21.445312 -74.6875 19.34375 C -76.289062 17.25 -78.59375 16.203125 -81.59375 16.203125 C -84.800781 16.203125 -87.203125 17.347656 -88.796875 19.640625 C -90.398438 21.941406 -91.601562 25.59375 -92.40625 30.59375 L -116.09375 185.09375 C -117.5 194.300781 -120.453125 201.253906 -124.953125 205.953125 C -129.453125 210.648438 -135.203125 213 -142.203125 213 C -156.597656 213 -165.195312 203.695312 -168 185.09375 L -191.703125 30.59375 C -192.503906 25.394531 -193.703125 21.695312 -195.296875 19.5 C -196.898438 17.300781 -199.300781 16.203125 -202.5 16.203125 C -205.300781 16.203125 -207.550781 17.300781 -209.25 19.5 C -210.945312 21.695312 -212.296875 25.5 -213.296875 30.90625 L -245.09375 202.203125 C -245.695312 206.003906 -246.945312 208.753906 -248.84375 210.453125 C -250.75 212.148438 -253.703125 213 -257.703125 213 C -264.503906 213 -267.90625 210 -267.90625 204 C -267.90625 203.195312 -267.703125 201.796875 -267.296875 199.796875 L -234.59375 31.5 C -232.394531 20.300781 -228.84375 11.75 -223.9375 5.84375 C -219.039062 -0.0507812 -211.992188 -3 -202.796875 -3 C -194.203125 -3 -187.453125 -0.203125 -182.546875 5.390625 C -177.648438 10.992188 -174.300781 19.597656 -172.5 31.203125 L -149.09375 182.703125 C -148.5 186.703125 -147.648438 189.550781 -146.546875 191.25 C -145.453125 192.945312 -144.003906 193.796875 -142.203125 193.796875 C -140.203125 193.796875 -138.648438 192.945312 -137.546875 191.25 C -136.453125 189.550781 -135.601562 186.703125 -135 182.703125 L -111.59375 31.203125 C -109.800781 19.597656 -106.453125 10.992188 -101.546875 5.390625 C -96.648438 -0.203125 -89.898438 -3 -81.296875 -3 Z M -81.296875 -3 "/></g></g></g></svg>